g Altar
v 0.5973786 0.0726942 0.04091617
v 0.5107835 0 0
v 0.5431813 0 -0.8399786
v 0.5973786 0.0726942 0.04091617
v 0.5431813 0 -0.8399786
v 0.5933751 0.5488684 -0.8566728
v 0.5933751 0.5488684 -0.8566728
v 0.5431813 0 -0.8399786
v -0.2553918 0 -0.3949392
v 0.5933751 0.5488684 -0.8566728
v -0.2553918 0 -0.3949392
v -0.2951164 0.3399803 -0.4101612
v -0.2951164 0.3399803 -0.4101612
v -0.2553918 0 -0.3949392
v -0.5107835 0 4.92088E-08
v -0.2951164 0.3399803 -0.4101612
v -0.5107835 0 4.92088E-08
v -0.5973786 0.1058693 0.04916752
v -0.5973786 0.1058693 0.04916752
v -0.5107835 0 4.92088E-08
v -0.5107835 0 5.960464E-08
v -0.5973786 0.1058693 0.04916752
v -0.5107835 0 5.960464E-08
v -0.4727517 0 0.2413985
v 0.1051003 0 0.2071542
v 0.5107835 0 0
v 0.5973786 0.0726942 0.04091617
v 0.5397987 0.1608558 0.08569454
v 0.5973786 0.0726942 0.04091617
v 0.5933751 0.5488684 -0.8566728
v 0.5397987 0.1608558 0.08569454
v 0.5933751 0.5488684 -0.8566728
v 0.5653765 0.6114005 -0.768844
v 0.5653765 0.6114005 -0.768844
v 0.5933751 0.5488684 -0.8566728
v -0.2951164 0.3399803 -0.4101612
v 0.5653765 0.6114005 -0.768844
v -0.2951164 0.3399803 -0.4101612
v -0.2660983 0.4058089 -0.3213366
v -0.2660983 0.4058089 -0.3213366
v -0.2951164 0.3399803 -0.4101612
v -0.5973786 0.1058693 0.04916752
v -0.2660983 0.4058089 -0.3213366
v -0.5973786 0.1058693 0.04916752
v -0.5397987 0.1962712 0.0944728
v -0.5397987 0.1962712 0.0944728
v -0.5973786 0.1058693 0.04916752
v -0.4727517 0 0.2413985
v -0.5397987 0.1962712 0.0944728
v -0.4727517 0 0.2413985
v -0.2800144 0 0.5379964
v 0.2782235 0 0.5439501
v 0.1051003 0 0.2071542
v 0.5973786 0.0726942 0.04091617
v 0.2782235 0 0.5439501
v 0.5973786 0.0726942 0.04091617
v 0.5397987 0.1608558 0.08569454
v 0.5824112 0.2716729 0.1359806
v 0.5397987 0.1608558 0.08569454
v 0.5653765 0.6114005 -0.768844
v 0.5824112 0.2716729 0.1359806
v 0.5653765 0.6114005 -0.768844
v 0.5775161 0.698457 -0.7715281
v 0.5775161 0.698457 -0.7715281
v 0.5653765 0.6114005 -0.768844
v -0.2660983 0.4058089 -0.3213366
v 0.5775161 0.698457 -0.7715281
v -0.2660983 0.4058089 -0.3213366
v -0.2919463 0.4805962 -0.3217362
v -0.2919463 0.4805962 -0.3217362
v -0.2660983 0.4058089 -0.3213366
v -0.5397987 0.1962712 0.0944728
v -0.2919463 0.4805962 -0.3217362
v -0.5397987 0.1962712 0.0944728
v -0.5824112 0.2640177 0.1342704
v -0.5824112 0.2640177 0.1342704
v -0.5397987 0.1962712 0.0944728
v -0.2800144 0 0.5379964
v -0.5824112 0.2640177 0.1342704
v -0.2800144 0 0.5379964
v -0.290465 0.05126671 0.591132
v -0.290465 0.05126671 0.591132
v -0.2800144 0 0.5379964
v 0.2782235 0 0.5439501
v -0.290465 0.05126671 0.591132
v 0.2782235 0 0.5439501
v 0.2919461 0.05509432 0.5919873
v 0.2919461 0.05509432 0.5919873
v 0.2782235 0 0.5439501
v 0.5397987 0.1608558 0.08569454
v 0.2919461 0.05509432 0.5919873
v 0.5397987 0.1608558 0.08569454
v 0.5824112 0.2716729 0.1359806
v 0 0.2678453 0.1351255
v 0.5824112 0.2716729 0.1359806
v 0.5775161 0.698457 -0.7715281
v 0 0.2678453 0.1351255
v 0.5775161 0.698457 -0.7715281
v -0.2919463 0.4805962 -0.3217362
v 0 0.2678453 0.1351255
v -0.2919463 0.4805962 -0.3217362
v -0.5824112 0.2640177 0.1342704
v 0 0.2678453 0.1351255
v -0.5824112 0.2640177 0.1342704
v -0.290465 0.05126671 0.591132
v 0 0.2678453 0.1351255
v -0.290465 0.05126671 0.591132
v 0.2919461 0.05509432 0.5919873
v 0 0.2678453 0.1351255
v 0.2919461 0.05509432 0.5919873
v 0.5824112 0.2716729 0.1359806

vn 0.635938 -0.7713502 0.024528
vn 0.635938 -0.7713502 0.024528
vn 0.635938 -0.7713502 0.024528
vn 0.9942675 -0.09255365 -0.05353472
vn 0.9942675 -0.09255365 -0.05353472
vn 0.9942675 -0.09255365 -0.05353472
vn -0.4867241 0.01794656 -0.8733714
vn -0.4867241 0.01794656 -0.8733714
vn -0.4867241 0.01794656 -0.8733714
vn -0.4301305 -0.09047443 -0.8982216
vn -0.4301305 -0.09047443 -0.8982216
vn -0.4301305 -0.09047443 -0.8982216
vn -0.8334993 -0.1215216 -0.5389912
vn -0.8334993 -0.1215216 -0.5389912
vn -0.8334993 -0.1215216 -0.5389912
vn -0.7203519 -0.2984222 -0.6261289
vn -0.7203519 -0.2984222 -0.6261289
vn -0.7203519 -0.2984222 -0.6261289
vn 0 0 0
vn 0 0 0
vn 0 0 0
vn -0.7414735 -0.6607351 0.1168176
vn -0.7414735 -0.6607351 0.1168176
vn -0.7414735 -0.6607351 0.1168176
vn 0.3147315 -0.7218352 0.6163587
vn 0.3147315 -0.7218352 0.6163587
vn 0.3147315 -0.7218352 0.6163587
vn 0.8641497 0.4461373 0.2328231
vn 0.8641497 0.4461373 0.2328231
vn 0.8641497 0.4461373 0.2328231
vn 0.9632815 0.2245354 0.1472162
vn 0.9632815 0.2245354 0.1472162
vn 0.9632815 0.2245354 0.1472162
vn -0.4579781 0.6486791 -0.6078417
vn -0.4579781 0.6486791 -0.6078417
vn -0.4579781 0.6486791 -0.6078417
vn -0.4320922 0.7863191 -0.4415863
vn -0.4320922 0.7863191 -0.4415863
vn -0.4320922 0.7863191 -0.4415863
vn -0.7701943 0.6063721 -0.1977716
vn -0.7701943 0.6063721 -0.1977716
vn -0.7701943 0.6063721 -0.1977716
vn -0.7742183 0.5976003 -0.2084707
vn -0.7742183 0.5976003 -0.2084707
vn -0.7742183 0.5976003 -0.2084707
vn -0.7731585 0.1890623 0.605377
vn -0.7731585 0.1890623 0.605377
vn -0.7731585 0.1890623 0.605377
vn -0.8323928 0.1205697 0.5409114
vn -0.8323928 0.1205697 0.5409114
vn -0.8323928 0.1205697 0.5409114
vn 0.1245867 -0.9901398 -0.0640413
vn 0.1245867 -0.9901398 -0.0640413
vn 0.1245867 -0.9901398 -0.0640413
vn 0.8016536 0.2471034 0.5443265
vn 0.8016536 0.2471034 0.5443265
vn 0.8016536 0.2471034 0.5443265
vn 0.9437958 -0.3031978 -0.1316078
vn 0.9437958 -0.3031978 -0.1316078
vn 0.9437958 -0.3031978 -0.1316078
vn 0.9876065 -0.1399099 -0.07112411
vn 0.9876065 -0.1399099 -0.07112411
vn 0.9876065 -0.1399099 -0.07112411
vn -0.4812172 0.04010449 -0.8756835
vn -0.4812172 0.04010449 -0.8756835
vn -0.4812172 0.04010449 -0.8756835
vn -0.4240139 -0.1513183 -0.892925
vn -0.4240139 -0.1513183 -0.892925
vn -0.4240139 -0.1513183 -0.892925
vn -0.7414132 -0.2595535 -0.6188203
vn -0.7414132 -0.2595535 -0.6188203
vn -0.7414132 -0.2595535 -0.6188203
vn -0.7968383 -0.1587502 -0.5829641
vn -0.7968383 -0.1587502 -0.5829641
vn -0.7968383 -0.1587502 -0.5829641
vn -0.777091 -0.600158 0.189578
vn -0.777091 -0.600158 0.189578
vn -0.777091 -0.600158 0.189578
vn -0.8231186 -0.4808669 0.3020641
vn -0.8231186 -0.4808669 0.3020641
vn -0.8231186 -0.4808669 0.3020641
vn -0.007397016 -0.7203568 0.6935644
vn -0.007397016 -0.7203568 0.6935644
vn -0.007397016 -0.7203568 0.6935644
vn 0.003215717 -0.6576356 0.7533293
vn 0.003215717 -0.6576356 0.7533293
vn 0.003215717 -0.6576356 0.7533293
vn 0.8265028 -0.4725707 0.3058923
vn 0.8265028 -0.4725707 0.3058923
vn 0.8265028 -0.4725707 0.3058923
vn 0.8313746 -0.4607025 0.3107564
vn 0.8313746 -0.4607025 0.3107564
vn 0.8313746 -0.4607025 0.3107564
vn -0.006571892 0.9048926 0.4255892
vn -0.006571892 0.9048926 0.4255892
vn -0.006571892 0.9048926 0.4255892
vn -0.006571892 0.9048926 0.4255892
vn -0.006571892 0.9048926 0.4255892
vn -0.006571892 0.9048926 0.4255892
vn -0.006571859 0.9048926 0.4255892
vn -0.006571859 0.9048926 0.4255892
vn -0.006571859 0.9048926 0.4255892
vn -0.006571859 0.9048926 0.4255891
vn -0.006571859 0.9048926 0.4255891
vn -0.006571859 0.9048926 0.4255891
vn -0.006571924 0.9048927 0.4255892
vn -0.006571924 0.9048927 0.4255892
vn -0.006571924 0.9048927 0.4255892
vn -0.006571892 0.9048926 0.4255892
vn -0.006571892 0.9048926 0.4255892
vn -0.006571892 0.9048926 0.4255892

vt 0.25 0.1666667
vt 0.25 0.1666667
vt 0.25 0.1666667
vt 0.25 0.1666667
vt 0.25 0.1666667
vt 0.25 0.1666667
vt 0.25 0.1666667
vt 0.25 0.1666667
vt 0.25 0.1666667
vt 0.25 0.1666667
vt 0.25 0.1666667
vt 0.25 0.1666667
vt 0.25 0.1666667
vt 0.25 0.1666667
vt 0.25 0.1666667
vt 0.25 0.1666667
vt 0.25 0.1666667
vt 0.25 0.1666667
vt 0.25 0.1666667
vt 0.25 0.1666667
vt 0.25 0.1666667
vt 0.25 0.1666667
vt 0.25 0.1666667
vt 0.25 0.1666667
vt 0.25 0.1666667
vt 0.25 0.1666667
vt 0.25 0.1666667
vt 0.4166667 0.1666667
vt 0.4166667 0.1666667
vt 0.4166667 0.1666667
vt 0.4166667 0.1666667
vt 0.4166667 0.1666667
vt 0.4166667 0.1666667
vt 0.4166667 0.1666667
vt 0.4166667 0.1666667
vt 0.4166667 0.1666667
vt 0.4166667 0.1666667
vt 0.4166667 0.1666667
vt 0.4166667 0.1666667
vt 0.4166667 0.1666667
vt 0.4166667 0.1666667
vt 0.4166667 0.1666667
vt 0.4166667 0.1666667
vt 0.4166667 0.1666667
vt 0.4166667 0.1666667
vt 0.4166667 0.1666667
vt 0.4166667 0.1666667
vt 0.4166667 0.1666667
vt 0.4166667 0.1666667
vt 0.4166667 0.1666667
vt 0.4166667 0.1666667
vt 0.4166667 0.1666667
vt 0.4166667 0.1666667
vt 0.4166667 0.1666667
vt 0.4166667 0.1666667
vt 0.4166667 0.1666667
vt 0.4166667 0.1666667
vt 0.5833333 0.1666667
vt 0.5833333 0.1666667
vt 0.5833333 0.1666667
vt 0.5833333 0.1666667
vt 0.5833333 0.1666667
vt 0.5833333 0.1666667
vt 0.5833333 0.1666667
vt 0.5833333 0.1666667
vt 0.5833333 0.1666667
vt 0.5833333 0.1666667
vt 0.5833333 0.1666667
vt 0.5833333 0.1666667
vt 0.5833333 0.1666667
vt 0.5833333 0.1666667
vt 0.5833333 0.1666667
vt 0.5833333 0.1666667
vt 0.5833333 0.1666667
vt 0.5833333 0.1666667
vt 0.5833333 0.1666667
vt 0.5833333 0.1666667
vt 0.5833333 0.1666667
vt 0.5833333 0.1666667
vt 0.5833333 0.1666667
vt 0.5833333 0.1666667
vt 0.5833333 0.1666667
vt 0.5833333 0.1666667
vt 0.5833333 0.1666667
vt 0.5833333 0.1666667
vt 0.5833333 0.1666667
vt 0.5833333 0.1666667
vt 0.5833333 0.1666667
vt 0.5833333 0.1666667
vt 0.5833333 0.1666667
vt 0.5833333 0.1666667
vt 0.5833333 0.1666667
vt 0.5833333 0.1666667
vt 0.75 0.1666667
vt 0.75 0.1666667
vt 0.75 0.1666667
vt 0.75 0.1666667
vt 0.75 0.1666667
vt 0.75 0.1666667
vt 0.75 0.1666667
vt 0.75 0.1666667
vt 0.75 0.1666667
vt 0.75 0.1666667
vt 0.75 0.1666667
vt 0.75 0.1666667
vt 0.75 0.1666667
vt 0.75 0.1666667
vt 0.75 0.1666667
vt 0.75 0.1666667
vt 0.75 0.1666667
vt 0.75 0.1666667

usemtl Default-Material (Instance)
usemap Default-Material (Instance)
f 1/1/1 2/2/2 3/3/3
f 4/4/4 5/5/5 6/6/6
f 7/7/7 8/8/8 9/9/9
f 10/10/10 11/11/11 12/12/12
f 13/13/13 14/14/14 15/15/15
f 16/16/16 17/17/17 18/18/18
f 19/19/19 20/20/20 21/21/21
f 22/22/22 23/23/23 24/24/24
f 25/25/25 26/26/26 27/27/27
f 28/28/28 29/29/29 30/30/30
f 31/31/31 32/32/32 33/33/33
f 34/34/34 35/35/35 36/36/36
f 37/37/37 38/38/38 39/39/39
f 40/40/40 41/41/41 42/42/42
f 43/43/43 44/44/44 45/45/45
f 46/46/46 47/47/47 48/48/48
f 49/49/49 50/50/50 51/51/51
f 52/52/52 53/53/53 54/54/54
f 55/55/55 56/56/56 57/57/57
f 58/58/58 59/59/59 60/60/60
f 61/61/61 62/62/62 63/63/63
f 64/64/64 65/65/65 66/66/66
f 67/67/67 68/68/68 69/69/69
f 70/70/70 71/71/71 72/72/72
f 73/73/73 74/74/74 75/75/75
f 76/76/76 77/77/77 78/78/78
f 79/79/79 80/80/80 81/81/81
f 82/82/82 83/83/83 84/84/84
f 85/85/85 86/86/86 87/87/87
f 88/88/88 89/89/89 90/90/90
f 91/91/91 92/92/92 93/93/93
f 94/94/94 95/95/95 96/96/96
f 97/97/97 98/98/98 99/99/99
f 100/100/100 101/101/101 102/102/102
f 103/103/103 104/104/104 105/105/105
f 106/106/106 107/107/107 108/108/108
f 109/109/109 110/110/110 111/111/111
