g Ridge
v 0.5627952 0.08916867 0.04397797
v 0.488331 0 0
v 0.4892857 0 -0.7605591
v 0.5627952 0.08916867 0.04397797
v 0.4892857 0 -0.7605591
v 0.5267347 0.4911914 -0.7745922
v 0.5267347 0.4911914 -0.7745922
v 0.4892857 0 -0.7605591
v -0.2441656 0 -0.3795374
v 0.5267347 0.4911914 -0.7745922
v -0.2441656 0 -0.3795374
v -0.2812818 0.3048744 -0.393311
v -0.2812818 0.3048744 -0.393311
v -0.2441656 0 -0.3795374
v -0.488331 0 4.753841E-08
v -0.2812818 0.3048744 -0.393311
v -0.488331 0 4.753841E-08
v -0.5627952 0.09032112 0.04424572
v -0.5627952 0.09032112 0.04424572
v -0.488331 0 4.753841E-08
v -0.488331 0 5.960464E-08
v -0.5627952 0.09032112 0.04424572
v -0.488331 0 5.960464E-08
v -0.4447004 0 0.2278957
v 0.1173414 0 0.2265902
v 0.488331 0 0
v 0.5627952 0.08916867 0.04397797
v 0.5256226 0.1800801 0.0883615
v 0.5627952 0.08916867 0.04397797
v 0.5267347 0.4911914 -0.7745922
v 0.5256226 0.1800801 0.0883615
v 0.5267347 0.4911914 -0.7745922
v 0.5077006 0.5697279 -0.7004036
v 0.5077006 0.5697279 -0.7004036
v 0.5267347 0.4911914 -0.7745922
v -0.2812818 0.3048744 -0.393311
v 0.5077006 0.5697279 -0.7004036
v -0.2812818 0.3048744 -0.393311
v -0.2629308 0.3808146 -0.3199617
v -0.2629308 0.3808146 -0.3199617
v -0.2812818 0.3048744 -0.393311
v -0.5627952 0.09032112 0.04424572
v -0.2629308 0.3808146 -0.3199617
v -0.5627952 0.09032112 0.04424572
v -0.5256226 0.1788995 0.08808583
v -0.5256226 0.1788995 0.08808583
v -0.5627952 0.09032112 0.04424572
v -0.4447004 0 0.2278957
v -0.5256226 0.1788995 0.08808583
v -0.4447004 0 0.2278957
v -0.2733391 0 0.5276631
v 0.2733126 0 0.527209
v 0.1173414 0 0.2265902
v 0.5627952 0.08916867 0.04397797
v 0.2733126 0 0.527209
v 0.5627952 0.08916867 0.04397797
v 0.5256226 0.1800801 0.0883615
v 0.5984756 0.2691244 0.1323116
v 0.5256226 0.1800801 0.0883615
v 0.5077006 0.5697279 -0.7004036
v 0.5984756 0.2691244 0.1323116
v 0.5077006 0.5697279 -0.7004036
v 0.5443958 0.6597025 -0.7258434
v 0.5443958 0.6597025 -0.7258434
v 0.5077006 0.5697279 -0.7004036
v -0.2629308 0.3808146 -0.3199617
v 0.5443958 0.6597025 -0.7258434
v -0.2629308 0.3808146 -0.3199617
v -0.2992172 0.4839882 -0.3393881
v -0.2992172 0.4839882 -0.3393881
v -0.2629308 0.3808146 -0.3199617
v -0.5256226 0.1788995 0.08808583
v -0.2992172 0.4839882 -0.3393881
v -0.5256226 0.1788995 0.08808583
v -0.5984756 0.269345 0.1323594
v -0.5984756 0.269345 0.1323594
v -0.5256226 0.1788995 0.08808583
v -0.2733391 0 0.5276631
v -0.5984756 0.269345 0.1323594
v -0.2733391 0 0.5276631
v -0.2992585 0.05459154 0.604083
v -0.2992585 0.05459154 0.604083
v -0.2733391 0 0.5276631
v 0.2733126 0 0.527209
v -0.2992585 0.05459154 0.604083
v 0.2733126 0 0.527209
v 0.299217 0.05448124 0.6040591
v 0.299217 0.05448124 0.6040591
v 0.2733126 0 0.527209
v 0.5256226 0.1800801 0.0883615
v 0.299217 0.05448124 0.6040591
v 0.5256226 0.1800801 0.0883615
v 0.5984756 0.2691244 0.1323116
v 0 0.2692347 0.1323355
v 0.5984756 0.2691244 0.1323116
v 0.5443958 0.6597025 -0.7258434
v 0 0.2692347 0.1323355
v 0.5443958 0.6597025 -0.7258434
v -0.2992172 0.4839882 -0.3393881
v 0 0.2692347 0.1323355
v -0.2992172 0.4839882 -0.3393881
v -0.5984756 0.269345 0.1323594
v 0 0.2692347 0.1323355
v -0.5984756 0.269345 0.1323594
v -0.2992585 0.05459154 0.604083
v 0 0.2692347 0.1323355
v -0.2992585 0.05459154 0.604083
v 0.299217 0.05448124 0.6040591
v 0 0.2692347 0.1323355
v 0.299217 0.05448124 0.6040591
v 0.5984756 0.2691244 0.1323116
v -0.4304541 0.04464521 -0.02109787
v -0.4499103 0 -0.0597221
v -0.2441656 0 -0.3795374
v -0.4304541 0.04464521 -0.02109787
v -0.2441656 0 -0.3795374
v -0.2246038 0.2455032 -0.3753953
v -0.2246038 0.2455032 -0.3753953
v -0.2441656 0 -0.3795374
v -0.6557025 0 -0.4172127
v -0.2246038 0.2455032 -0.3753953
v -0.6557025 0 -0.4172127
v -0.6675891 0.1523269 -0.4330758
v -0.6675891 0.1523269 -0.4330758
v -0.6557025 0 -0.4172127
v -0.8609281 0 -0.3234105
v -0.6675891 0.1523269 -0.4330758
v -0.8609281 0 -0.3234105
v -0.9042038 0.04509968 -0.3249068
v -0.9042038 0.04509968 -0.3249068
v -0.8609281 0 -0.3234105
v -0.8609281 0 -0.3234105
v -0.9042038 0.04509968 -0.3249068
v -0.8609281 0 -0.3234105
v -0.9040946 0 -0.2157514
v -0.6672202 0 -0.06439692
v -0.4499103 0 -0.0597221
v -0.4304541 0.04464521 -0.02109787
v -0.4579624 0.08915434 -0.01264143
v -0.4304541 0.04464521 -0.02109787
v -0.2246038 0.2455032 -0.3753953
v -0.4579624 0.08915434 -0.01264143
v -0.2246038 0.2455032 -0.3753953
v -0.2519949 0.2830115 -0.3496445
v -0.2519949 0.2830115 -0.3496445
v -0.2246038 0.2455032 -0.3753953
v -0.6675891 0.1523269 -0.4330758
v -0.2519949 0.2830115 -0.3496445
v -0.6675891 0.1523269 -0.4330758
v -0.6794527 0.1903345 -0.3972378
v -0.6794527 0.1903345 -0.3972378
v -0.6675891 0.1523269 -0.4330758
v -0.9042038 0.04509968 -0.3249068
v -0.6794527 0.1903345 -0.3972378
v -0.9042038 0.04509968 -0.3249068
v -0.9005149 0.09033545 -0.2962352
v -0.9005149 0.09033545 -0.2962352
v -0.9042038 0.04509968 -0.3249068
v -0.9040946 0 -0.2157514
v -0.9005149 0.09033545 -0.2962352
v -0.9040946 0 -0.2157514
v -0.9173773 0 -0.03985682
v -0.6824234 0 0.1059651
v -0.6672202 0 -0.06439692
v -0.4304541 0.04464521 -0.02109787
v -0.6824234 0 0.1059651
v -0.4304541 0.04464521 -0.02109787
v -0.4579624 0.08915434 -0.01264143
v -0.4404405 0.1428031 0.02728766
v -0.4579624 0.08915434 -0.01264143
v -0.2519949 0.2830115 -0.3496445
v -0.4404405 0.1428031 0.02728766
v -0.2519949 0.2830115 -0.3496445
v -0.2385536 0.354856 -0.3431874
v -0.2385536 0.354856 -0.3431874
v -0.2519949 0.2830115 -0.3496445
v -0.6794527 0.1903345 -0.3972378
v -0.2385536 0.354856 -0.3431874
v -0.6794527 0.1903345 -0.3972378
v -0.6930615 0.2474985 -0.4129979
v -0.6930615 0.2474985 -0.4129979
v -0.6794527 0.1903345 -0.3972378
v -0.9005149 0.09033545 -0.2962352
v -0.6930615 0.2474985 -0.4129979
v -0.9005149 0.09033545 -0.2962352
v -0.9418563 0.1264316 -0.2990364
v -0.9418563 0.1264316 -0.2990364
v -0.9005149 0.09033545 -0.2962352
v -0.9173773 0 -0.03985682
v -0.9418563 0.1264316 -0.2990364
v -0.9173773 0 -0.03985682
v -0.9399431 0.01355048 -0.02191275
v -0.9399431 0.01355048 -0.02191275
v -0.9173773 0 -0.03985682
v -0.6824234 0 0.1059651
v -0.9399431 0.01355048 -0.02191275
v -0.6824234 0 0.1059651
v -0.6892354 0.02173626 0.1412492
v -0.6892354 0.02173626 0.1412492
v -0.6824234 0 0.1059651
v -0.4579624 0.08915434 -0.01264143
v -0.6892354 0.02173626 0.1412492
v -0.4579624 0.08915434 -0.01264143
v -0.4404405 0.1428031 0.02728766
v -0.6911484 0.1346174 -0.1358743
v -0.4404405 0.1428031 0.02728766
v -0.2385536 0.354856 -0.3431874
v -0.6911484 0.1346174 -0.1358743
v -0.2385536 0.354856 -0.3431874
v -0.6930615 0.2474985 -0.4129979
v -0.6911484 0.1346174 -0.1358743
v -0.6930615 0.2474985 -0.4129979
v -0.9418563 0.1264316 -0.2990364
v -0.6911484 0.1346174 -0.1358743
v -0.9418563 0.1264316 -0.2990364
v -0.9399431 0.01355048 -0.02191275
v -0.6911484 0.1346174 -0.1358743
v -0.9399431 0.01355048 -0.02191275
v -0.6892354 0.02173626 0.1412492
v -0.6911484 0.1346174 -0.1358743
v -0.6892354 0.02173626 0.1412492
v -0.4404405 0.1428031 0.02728766

vn 0.7673221 -0.6412612 0.0009632369
vn 0.7673221 -0.6412612 0.0009632369
vn 0.7673221 -0.6412612 0.0009632369
vn 0.9935575 -0.07809605 -0.08212447
vn 0.9935575 -0.07809605 -0.08212447
vn 0.9935575 -0.07809605 -0.08212447
vn -0.4609753 0.009793834 -0.8873589
vn -0.4609753 0.009793834 -0.8873589
vn -0.4609753 0.009793834 -0.8873589
vn -0.4078085 -0.09069403 -0.9085521
vn -0.4078085 -0.09069403 -0.9085521
vn -0.4078085 -0.09069403 -0.9085521
vn -0.8343166 -0.1258204 -0.5367355
vn -0.8343166 -0.1258204 -0.5367355
vn -0.8343166 -0.1258204 -0.5367355
vn -0.7289022 -0.2993103 -0.6157231
vn -0.7289022 -0.2993103 -0.6157231
vn -0.7289022 -0.2993103 -0.6157231
vn 0 0 0
vn 0 0 0
vn 0 0 0
vn -0.7293659 -0.6697214 0.1396372
vn -0.7293659 -0.6697214 0.1396372
vn -0.7293659 -0.6697214 0.1396372
vn 0.3959416 -0.6503723 0.6482638
vn 0.3959416 -0.6503723 0.6482638
vn 0.3959416 -0.6503723 0.6482638
vn 0.9380243 0.3256415 0.1186088
vn 0.9380243 0.3256415 0.1186088
vn 0.9380243 0.3256415 0.1186088
vn 0.9821251 0.1766659 0.06495705
vn 0.9821251 0.1766659 0.06495705
vn 0.9821251 0.1766659 0.06495705
vn -0.4567678 0.5498722 -0.6992881
vn -0.4567678 0.5498722 -0.6992881
vn -0.4567678 0.5498722 -0.6992881
vn -0.4533384 0.6734909 -0.5838615
vn -0.4533384 0.6734909 -0.5838615
vn -0.4533384 0.6734909 -0.5838615
vn -0.8248146 0.4830823 -0.2937894
vn -0.8248146 0.4830823 -0.2937894
vn -0.8248146 0.4830823 -0.2937894
vn -0.8235478 0.4883987 -0.288506
vn -0.8235478 0.4883987 -0.288506
vn -0.8235478 0.4883987 -0.288506
vn -0.8238501 0.06718245 0.5628122
vn -0.8238501 0.06718245 0.5628122
vn -0.8238501 0.06718245 0.5628122
vn -0.8681511 -0.0048542 0.4962763
vn -0.8681511 -0.0048542 0.4962763
vn -0.8681511 -0.0048542 0.4962763
vn 0.1622841 -0.9831452 -0.08419845
vn 0.1622841 -0.9831452 -0.08419845
vn 0.1622841 -0.9831452 -0.08419845
vn 0.8468872 0.09045061 0.5240237
vn 0.8468872 0.09045061 0.5240237
vn 0.8468872 0.09045061 0.5240237
vn 0.8061659 -0.5230128 -0.2766843
vn 0.8061659 -0.5230128 -0.2766843
vn 0.8061659 -0.5230128 -0.2766843
vn 0.870359 -0.4251916 -0.2483693
vn 0.870359 -0.4251916 -0.2483693
vn 0.870359 -0.4251916 -0.2483693
vn -0.4250544 -0.08153716 -0.9014879
vn -0.4250544 -0.08153716 -0.9014879
vn -0.4250544 -0.08153716 -0.9014879
vn -0.3479286 -0.2902207 -0.8914694
vn -0.3479286 -0.2902207 -0.8914694
vn -0.3479286 -0.2902207 -0.8914694
vn -0.6924972 -0.3611423 -0.6245189
vn -0.6924972 -0.3611423 -0.6245189
vn -0.6924972 -0.3611423 -0.6245189
vn -0.7384372 -0.2989248 -0.6044456
vn -0.7384372 -0.2989248 -0.6044456
vn -0.7384372 -0.2989248 -0.6044456
vn -0.7326732 -0.6637635 0.150359
vn -0.7326732 -0.6637635 0.150359
vn -0.7326732 -0.6637635 0.150359
vn -0.7542158 -0.6277374 0.1926245
vn -0.7542158 -0.6277374 0.1926245
vn -0.7542158 -0.6277374 0.1926245
vn 0.0004829215 -0.8136262 0.5813881
vn 0.0004829215 -0.8136262 0.5813881
vn 0.0004829215 -0.8136262 0.5813881
vn -0.000127248 -0.815775 0.5783694
vn -0.000127248 -0.815775 0.5783694
vn -0.000127248 -0.815775 0.5783694
vn 0.7620903 -0.6209708 0.1833405
vn 0.7620903 -0.6209708 0.1833405
vn 0.7620903 -0.6209708 0.1833405
vn 0.7256233 -0.670336 0.1553076
vn 0.7256233 -0.670336 0.1553076
vn 0.7256233 -0.670336 0.1553076
vn 0.0001842515 0.9101679 0.4142395
vn 0.0001842515 0.9101679 0.4142395
vn 0.0001842515 0.9101679 0.4142395
vn 0.0001842861 0.9101679 0.4142395
vn 0.0001842861 0.9101679 0.4142395
vn 0.0001842861 0.9101679 0.4142395
vn 0.0001842371 0.9101679 0.4142395
vn 0.0001842371 0.9101679 0.4142395
vn 0.0001842371 0.9101679 0.4142395
vn 0.0001842371 0.9101679 0.4142395
vn 0.0001842371 0.9101679 0.4142395
vn 0.0001842371 0.9101679 0.4142395
vn 0.0001842865 0.9101679 0.4142395
vn 0.0001842865 0.9101679 0.4142395
vn 0.0001842865 0.9101679 0.4142395
vn 0.0001842515 0.9101679 0.4142396
vn 0.0001842515 0.9101679 0.4142396
vn 0.0001842515 0.9101679 0.4142396
vn 0.7677517 -0.6407467 0.0009637762
vn 0.7677517 -0.6407467 0.0009637762
vn 0.7677517 -0.6407467 0.0009637762
vn 0.9935617 -0.07805252 -0.08211512
vn 0.9935617 -0.07805252 -0.08211512
vn 0.9935617 -0.07805252 -0.08211512
vn -0.4609765 0.009537078 -0.8873611
vn -0.4609765 0.009537078 -0.8873611
vn -0.4609765 0.009537078 -0.8873611
vn -0.4077554 -0.09106176 -0.9085391
vn -0.4077554 -0.09106176 -0.9085391
vn -0.4077554 -0.09106176 -0.9085391
vn -0.8342828 -0.126137 -0.5367138
vn -0.8342828 -0.126137 -0.5367138
vn -0.8342828 -0.126137 -0.5367138
vn -0.7287454 -0.2998071 -0.6156669
vn -0.7287454 -0.2998071 -0.6156669
vn -0.7287454 -0.2998071 -0.6156669
vn 0 0 0
vn 0 0 0
vn 0 0 0
vn -0.7289656 -0.6701854 0.1395012
vn -0.7289656 -0.6701854 0.1395012
vn -0.7289656 -0.6701854 0.1395012
vn 0.3964527 -0.6500992 0.6482254
vn 0.3964527 -0.6500992 0.6482254
vn 0.3964527 -0.6500992 0.6482254
vn 0.9358236 0.3309984 0.1211379
vn 0.9358236 0.3309984 0.1211379
vn 0.9358236 0.3309984 0.1211379
vn 0.9821827 0.1762868 0.06511535
vn 0.9821827 0.1762868 0.06511535
vn 0.9821827 0.1762868 0.06511535
vn -0.4555824 0.5608937 -0.6912618
vn -0.4555824 0.5608937 -0.6912618
vn -0.4555824 0.5608937 -0.6912618
vn -0.4514313 0.6739448 -0.5848146
vn -0.4514313 0.6739448 -0.5848146
vn -0.4514313 0.6739448 -0.5848146
vn -0.8242611 0.4847136 -0.2926538
vn -0.8242611 0.4847136 -0.2926538
vn -0.8242611 0.4847136 -0.2926538
vn -0.8246758 0.4829445 -0.2944053
vn -0.8246758 0.4829445 -0.2944053
vn -0.8246758 0.4829445 -0.2944053
vn -0.8248275 0.06396612 0.5617543
vn -0.8248275 0.06396612 0.5617543
vn -0.8248275 0.06396612 0.5617543
vn -0.8796154 -0.02756482 0.474886
vn -0.8796154 -0.02756482 0.474886
vn -0.8796154 -0.02756482 0.474886
vn 0.1623091 -0.9830902 -0.08479049
vn 0.1623091 -0.9830902 -0.08479049
vn 0.1623091 -0.9830902 -0.08479049
vn 0.8489599 0.09819853 0.5192534
vn 0.8489599 0.09819853 0.5192534
vn 0.8489599 0.09819853 0.5192534
vn 0.8504855 -0.4645871 -0.246644
vn 0.8504855 -0.4645871 -0.246644
vn 0.8504855 -0.4645871 -0.246644
vn 0.9640934 -0.2029491 -0.1712763
vn 0.9640934 -0.2029491 -0.1712763
vn 0.9640934 -0.2029491 -0.1712763
vn -0.4561386 0.07145413 -0.8870354
vn -0.4561386 0.07145413 -0.8870354
vn -0.4561386 0.07145413 -0.8870354
vn -0.349604 -0.2164443 -0.911553
vn -0.349604 -0.2164443 -0.911553
vn -0.349604 -0.2164443 -0.911553
vn -0.7202312 -0.3154862 -0.6178474
vn -0.7202312 -0.3154862 -0.6178474
vn -0.7202312 -0.3154862 -0.6178474
vn -0.6938543 -0.349762 -0.6294703
vn -0.6938543 -0.349762 -0.6294703
vn -0.6938543 -0.349762 -0.6294703
vn -0.6794387 -0.7290782 0.08251043
vn -0.6794387 -0.7290782 0.08251043
vn -0.6794387 -0.7290782 0.08251043
vn -0.6992142 -0.7060512 0.1122106
vn -0.6992142 -0.7060512 0.1122106
vn -0.6992142 -0.7060512 0.1122106
vn 0.006678352 -0.8947244 0.4465687
vn 0.006678352 -0.8947244 0.4465687
vn 0.006678352 -0.8947244 0.4465687
vn 0.01949781 -0.8413455 0.5401458
vn 0.01949781 -0.8413455 0.5401458
vn 0.01949781 -0.8413455 0.5401458
vn 0.730463 -0.6677357 0.1433629
vn 0.730463 -0.6677357 0.1433629
vn 0.730463 -0.6677357 0.1433629
vn 0.7753179 -0.6055205 0.179519
vn 0.7753179 -0.6055205 0.179519
vn 0.7753179 -0.6055205 0.179519
vn -0.02735536 0.8919126 0.4513798
vn -0.02735536 0.8919126 0.4513798
vn -0.02735536 0.8919126 0.4513798
vn -0.02735534 0.8919126 0.4513798
vn -0.02735534 0.8919126 0.4513798
vn -0.02735534 0.8919126 0.4513798
vn -0.02735537 0.8919125 0.4513798
vn -0.02735537 0.8919125 0.4513798
vn -0.02735537 0.8919125 0.4513798
vn -0.02735537 0.8919125 0.4513798
vn -0.02735537 0.8919125 0.4513798
vn -0.02735537 0.8919125 0.4513798
vn -0.0273554 0.8919125 0.4513798
vn -0.0273554 0.8919125 0.4513798
vn -0.0273554 0.8919125 0.4513798
vn -0.02735536 0.8919125 0.4513798
vn -0.02735536 0.8919125 0.4513798
vn -0.02735536 0.8919125 0.4513798

vt 0.25 0.1666667
vt 0.25 0.1666667
vt 0.25 0.1666667
vt 0.25 0.1666667
vt 0.25 0.1666667
vt 0.25 0.1666667
vt 0.25 0.1666667
vt 0.25 0.1666667
vt 0.25 0.1666667
vt 0.25 0.1666667
vt 0.25 0.1666667
vt 0.25 0.1666667
vt 0.25 0.1666667
vt 0.25 0.1666667
vt 0.25 0.1666667
vt 0.25 0.1666667
vt 0.25 0.1666667
vt 0.25 0.1666667
vt 0.25 0.1666667
vt 0.25 0.1666667
vt 0.25 0.1666667
vt 0.25 0.1666667
vt 0.25 0.1666667
vt 0.25 0.1666667
vt 0.25 0.1666667
vt 0.25 0.1666667
vt 0.25 0.1666667
vt 0.4166667 0.1666667
vt 0.4166667 0.1666667
vt 0.4166667 0.1666667
vt 0.4166667 0.1666667
vt 0.4166667 0.1666667
vt 0.4166667 0.1666667
vt 0.4166667 0.1666667
vt 0.4166667 0.1666667
vt 0.4166667 0.1666667
vt 0.4166667 0.1666667
vt 0.4166667 0.1666667
vt 0.4166667 0.1666667
vt 0.4166667 0.1666667
vt 0.4166667 0.1666667
vt 0.4166667 0.1666667
vt 0.4166667 0.1666667
vt 0.4166667 0.1666667
vt 0.4166667 0.1666667
vt 0.4166667 0.1666667
vt 0.4166667 0.1666667
vt 0.4166667 0.1666667
vt 0.4166667 0.1666667
vt 0.4166667 0.1666667
vt 0.4166667 0.1666667
vt 0.4166667 0.1666667
vt 0.4166667 0.1666667
vt 0.4166667 0.1666667
vt 0.4166667 0.1666667
vt 0.4166667 0.1666667
vt 0.4166667 0.1666667
vt 0.5833333 0.1666667
vt 0.5833333 0.1666667
vt 0.5833333 0.1666667
vt 0.5833333 0.1666667
vt 0.5833333 0.1666667
vt 0.5833333 0.1666667
vt 0.5833333 0.1666667
vt 0.5833333 0.1666667
vt 0.5833333 0.1666667
vt 0.5833333 0.1666667
vt 0.5833333 0.1666667
vt 0.5833333 0.1666667
vt 0.5833333 0.1666667
vt 0.5833333 0.1666667
vt 0.5833333 0.1666667
vt 0.5833333 0.1666667
vt 0.5833333 0.1666667
vt 0.5833333 0.1666667
vt 0.5833333 0.1666667
vt 0.5833333 0.1666667
vt 0.5833333 0.1666667
vt 0.5833333 0.1666667
vt 0.5833333 0.1666667
vt 0.5833333 0.1666667
vt 0.5833333 0.1666667
vt 0.5833333 0.1666667
vt 0.5833333 0.1666667
vt 0.5833333 0.1666667
vt 0.5833333 0.1666667
vt 0.5833333 0.1666667
vt 0.5833333 0.1666667
vt 0.5833333 0.1666667
vt 0.5833333 0.1666667
vt 0.5833333 0.1666667
vt 0.5833333 0.1666667
vt 0.5833333 0.1666667
vt 0.75 0.1666667
vt 0.75 0.1666667
vt 0.75 0.1666667
vt 0.75 0.1666667
vt 0.75 0.1666667
vt 0.75 0.1666667
vt 0.75 0.1666667
vt 0.75 0.1666667
vt 0.75 0.1666667
vt 0.75 0.1666667
vt 0.75 0.1666667
vt 0.75 0.1666667
vt 0.75 0.1666667
vt 0.75 0.1666667
vt 0.75 0.1666667
vt 0.75 0.1666667
vt 0.75 0.1666667
vt 0.75 0.1666667
vt 0.25 0.1666667
vt 0.25 0.1666667
vt 0.25 0.1666667
vt 0.25 0.1666667
vt 0.25 0.1666667
vt 0.25 0.1666667
vt 0.25 0.1666667
vt 0.25 0.1666667
vt 0.25 0.1666667
vt 0.25 0.1666667
vt 0.25 0.1666667
vt 0.25 0.1666667
vt 0.25 0.1666667
vt 0.25 0.1666667
vt 0.25 0.1666667
vt 0.25 0.1666667
vt 0.25 0.1666667
vt 0.25 0.1666667
vt 0.25 0.1666667
vt 0.25 0.1666667
vt 0.25 0.1666667
vt 0.25 0.1666667
vt 0.25 0.1666667
vt 0.25 0.1666667
vt 0.25 0.1666667
vt 0.25 0.1666667
vt 0.25 0.1666667
vt 0.4166667 0.1666667
vt 0.4166667 0.1666667
vt 0.4166667 0.1666667
vt 0.4166667 0.1666667
vt 0.4166667 0.1666667
vt 0.4166667 0.1666667
vt 0.4166667 0.1666667
vt 0.4166667 0.1666667
vt 0.4166667 0.1666667
vt 0.4166667 0.1666667
vt 0.4166667 0.1666667
vt 0.4166667 0.1666667
vt 0.4166667 0.1666667
vt 0.4166667 0.1666667
vt 0.4166667 0.1666667
vt 0.4166667 0.1666667
vt 0.4166667 0.1666667
vt 0.4166667 0.1666667
vt 0.4166667 0.1666667
vt 0.4166667 0.1666667
vt 0.4166667 0.1666667
vt 0.4166667 0.1666667
vt 0.4166667 0.1666667
vt 0.4166667 0.1666667
vt 0.4166667 0.1666667
vt 0.4166667 0.1666667
vt 0.4166667 0.1666667
vt 0.4166667 0.1666667
vt 0.4166667 0.1666667
vt 0.4166667 0.1666667
vt 0.5833333 0.1666667
vt 0.5833333 0.1666667
vt 0.5833333 0.1666667
vt 0.5833333 0.1666667
vt 0.5833333 0.1666667
vt 0.5833333 0.1666667
vt 0.5833333 0.1666667
vt 0.5833333 0.1666667
vt 0.5833333 0.1666667
vt 0.5833333 0.1666667
vt 0.5833333 0.1666667
vt 0.5833333 0.1666667
vt 0.5833333 0.1666667
vt 0.5833333 0.1666667
vt 0.5833333 0.1666667
vt 0.5833333 0.1666667
vt 0.5833333 0.1666667
vt 0.5833333 0.1666667
vt 0.5833333 0.1666667
vt 0.5833333 0.1666667
vt 0.5833333 0.1666667
vt 0.5833333 0.1666667
vt 0.5833333 0.1666667
vt 0.5833333 0.1666667
vt 0.5833333 0.1666667
vt 0.5833333 0.1666667
vt 0.5833333 0.1666667
vt 0.5833333 0.1666667
vt 0.5833333 0.1666667
vt 0.5833333 0.1666667
vt 0.5833333 0.1666667
vt 0.5833333 0.1666667
vt 0.5833333 0.1666667
vt 0.5833333 0.1666667
vt 0.5833333 0.1666667
vt 0.5833333 0.1666667
vt 0.75 0.1666667
vt 0.75 0.1666667
vt 0.75 0.1666667
vt 0.75 0.1666667
vt 0.75 0.1666667
vt 0.75 0.1666667
vt 0.75 0.1666667
vt 0.75 0.1666667
vt 0.75 0.1666667
vt 0.75 0.1666667
vt 0.75 0.1666667
vt 0.75 0.1666667
vt 0.75 0.1666667
vt 0.75 0.1666667
vt 0.75 0.1666667
vt 0.75 0.1666667
vt 0.75 0.1666667
vt 0.75 0.1666667

usemtl Default-Material (Instance)
usemap Default-Material (Instance)
f 1/1/1 2/2/2 3/3/3
f 4/4/4 5/5/5 6/6/6
f 7/7/7 8/8/8 9/9/9
f 10/10/10 11/11/11 12/12/12
f 13/13/13 14/14/14 15/15/15
f 16/16/16 17/17/17 18/18/18
f 19/19/19 20/20/20 21/21/21
f 22/22/22 23/23/23 24/24/24
f 25/25/25 26/26/26 27/27/27
f 28/28/28 29/29/29 30/30/30
f 31/31/31 32/32/32 33/33/33
f 34/34/34 35/35/35 36/36/36
f 37/37/37 38/38/38 39/39/39
f 40/40/40 41/41/41 42/42/42
f 43/43/43 44/44/44 45/45/45
f 46/46/46 47/47/47 48/48/48
f 49/49/49 50/50/50 51/51/51
f 52/52/52 53/53/53 54/54/54
f 55/55/55 56/56/56 57/57/57
f 58/58/58 59/59/59 60/60/60
f 61/61/61 62/62/62 63/63/63
f 64/64/64 65/65/65 66/66/66
f 67/67/67 68/68/68 69/69/69
f 70/70/70 71/71/71 72/72/72
f 73/73/73 74/74/74 75/75/75
f 76/76/76 77/77/77 78/78/78
f 79/79/79 80/80/80 81/81/81
f 82/82/82 83/83/83 84/84/84
f 85/85/85 86/86/86 87/87/87
f 88/88/88 89/89/89 90/90/90
f 91/91/91 92/92/92 93/93/93
f 94/94/94 95/95/95 96/96/96
f 97/97/97 98/98/98 99/99/99
f 100/100/100 101/101/101 102/102/102
f 103/103/103 104/104/104 105/105/105
f 106/106/106 107/107/107 108/108/108
f 109/109/109 110/110/110 111/111/111
f 112/112/112 113/113/113 114/114/114
f 115/115/115 116/116/116 117/117/117
f 118/118/118 119/119/119 120/120/120
f 121/121/121 122/122/122 123/123/123
f 124/124/124 125/125/125 126/126/126
f 127/127/127 128/128/128 129/129/129
f 130/130/130 131/131/131 132/132/132
f 133/133/133 134/134/134 135/135/135
f 136/136/136 137/137/137 138/138/138
f 139/139/139 140/140/140 141/141/141
f 142/142/142 143/143/143 144/144/144
f 145/145/145 146/146/146 147/147/147
f 148/148/148 149/149/149 150/150/150
f 151/151/151 152/152/152 153/153/153
f 154/154/154 155/155/155 156/156/156
f 157/157/157 158/158/158 159/159/159
f 160/160/160 161/161/161 162/162/162
f 163/163/163 164/164/164 165/165/165
f 166/166/166 167/167/167 168/168/168
f 169/169/169 170/170/170 171/171/171
f 172/172/172 173/173/173 174/174/174
f 175/175/175 176/176/176 177/177/177
f 178/178/178 179/179/179 180/180/180
f 181/181/181 182/182/182 183/183/183
f 184/184/184 185/185/185 186/186/186
f 187/187/187 188/188/188 189/189/189
f 190/190/190 191/191/191 192/192/192
f 193/193/193 194/194/194 195/195/195
f 196/196/196 197/197/197 198/198/198
f 199/199/199 200/200/200 201/201/201
f 202/202/202 203/203/203 204/204/204
f 205/205/205 206/206/206 207/207/207
f 208/208/208 209/209/209 210/210/210
f 211/211/211 212/212/212 213/213/213
f 214/214/214 215/215/215 216/216/216
f 217/217/217 218/218/218 219/219/219
f 220/220/220 221/221/221 222/222/222
